<svg xmlns="http://www.w3.org/2000/svg" width="960" height="720" viewBox="0 0 960 720" fill="none">
  <defs>
    <linearGradient id="ground" x1="0" y1="0" x2="1" y2="1">
      <stop offset="0" stop-color="#FFF7FA"/>
      <stop offset="1" stop-color="#FFE0EC"/>
    </linearGradient>
    <linearGradient id="clay" x1="0" y1="0" x2="0.7" y2="1">
      <stop offset="0" stop-color="#FFE0EC"/>
      <stop offset="1" stop-color="#FFC2D9"/>
    </linearGradient>
    <linearGradient id="clayDeep" x1="0" y1="0" x2="0.7" y2="1">
      <stop offset="0" stop-color="#FFC2D9"/>
      <stop offset="1" stop-color="#FF94BA"/>
    </linearGradient>
    <linearGradient id="cta" x1="0" y1="0" x2="1" y2="1">
      <stop offset="0" stop-color="#D63384"/>
      <stop offset="1" stop-color="#8C1A55"/>
    </linearGradient>
    <!-- A whisper of light, not a 3D render. A strong radial highlight makes a
         soft pink curve read as a body; at 0.18 it reads as glazed clay. -->
    <radialGradient id="glaze" cx="0.34" cy="0.28" r="0.5">
      <stop offset="0" stop-color="#fff" stop-opacity="0.18"/>
      <stop offset="1" stop-color="#fff" stop-opacity="0"/>
    </radialGradient>
    <radialGradient id="bloom" cx="0.5" cy="0.5" r="0.5">
      <stop offset="0" stop-color="#FF94BA" stop-opacity="0.30"/>
      <stop offset="1" stop-color="#FF94BA" stop-opacity="0"/>
    </radialGradient>
    <pattern id="zellige" width="72" height="72" patternUnits="userSpaceOnUse">
      <polygon points="36.00,17.00 41.57,22.56 49.44,22.56 49.44,30.43 55.00,36.00 49.44,41.57 49.44,49.44 41.57,49.44 36.00,55.00 30.43,49.44 22.56,49.44 22.56,41.57 17.00,36.00 22.56,30.43 22.56,22.56 30.43,22.56" fill="none" stroke="#D63384" stroke-width="1" opacity="0.07"/>
      <polygon points="0.00,-9.00 2.64,-6.36 6.36,-6.36 6.36,-2.64 9.00,0.00 6.36,2.64 6.36,6.36 2.64,6.36 0.00,9.00 -2.64,6.36 -6.36,6.36 -6.36,2.64 -9.00,0.00 -6.36,-2.64 -6.36,-6.36 -2.64,-6.36" fill="none" stroke="#D63384" stroke-width="0.75" opacity="0.05"/>
      <polygon points="72.00,63.00 74.64,65.64 78.36,65.64 78.36,69.36 81.00,72.00 78.36,74.64 78.36,78.36 74.64,78.36 72.00,81.00 69.36,78.36 65.64,78.36 65.64,74.64 63.00,72.00 65.64,69.36 65.64,65.64 69.36,65.64" fill="none" stroke="#D63384" stroke-width="0.75" opacity="0.05"/>
    </pattern>
  </defs>
    <rect width="960" height="720" fill="url(#ground)"/>
    <rect width="960" height="720" fill="url(#zellige)"/>
    <ellipse cx="211.2" cy="144" rx="326.40000000000003" ry="302.4" fill="url(#bloom)"/>
    
    <path d="M419.30,420.00L418.71,425.17L418.35,430.34L418.21,435.56L418.24,440.88L418.31,446.34L418.28,451.93L417.99,457.62L417.29,463.32L416.04,468.93L414.14,474.35L411.55,479.45L408.27,484.13L404.37,488.32L399.94,491.98L395.11,495.11L390.03,497.78L384.84,500.07L379.66,502.12L374.58,504.05L369.65,506.00L364.87,508.07L360.22,510.34L355.64,512.83L351.04,515.52L346.34,518.31L341.49,521.08L336.42,523.67L331.13,525.91L325.64,527.64L320.00,528.70L314.29,529.01L308.59,528.51L303.02,527.22L297.64,525.22L292.51,522.60L287.66,519.54L283.08,516.19L278.72,512.73L274.50,509.29L270.35,506.00L266.17,502.90L261.87,500.00L257.42,497.28L252.80,494.64L248.03,491.97L243.20,489.15L238.43,486.06L233.84,482.60L229.60,478.70L225.86,474.35L222.74,469.56L220.32,464.38L218.65,458.90L217.70,453.24L217.40,447.49L217.63,441.76L218.23,436.12L219.05,430.61L219.92,425.24L220.70,420.00L221.29,414.83L221.65,409.66L221.79,404.44L221.76,399.12L221.69,393.66L221.72,388.07L222.01,382.38L222.71,376.68L223.96,371.07L225.86,365.65L228.45,360.55L231.73,355.87L235.63,351.68L240.06,348.02L244.89,344.89L249.97,342.22L255.16,339.93L260.34,337.88L265.42,335.95L270.35,334.00L275.13,331.93L279.78,329.66L284.36,327.17L288.96,324.48L293.66,321.69L298.51,318.92L303.58,316.33L308.87,314.09L314.36,312.36L320.00,311.30L325.71,310.99L331.41,311.49L336.98,312.78L342.36,314.78L347.49,317.40L352.34,320.46L356.92,323.81L361.28,327.27L365.50,330.71L369.65,334.00L373.83,337.10L378.13,340.00L382.58,342.72L387.20,345.36L391.97,348.03L396.80,350.85L401.57,353.94L406.16,357.40L410.40,361.30L414.14,365.65L417.26,370.44L419.68,375.62L421.35,381.10L422.30,386.76L422.60,392.51L422.37,398.24L421.77,403.88L420.95,409.39L420.08,414.76Z" fill="url(#clay)" stroke="#D63384" stroke-width="1.8719999999999999" stroke-opacity="0.28"/>
    <path d="M419.30,420.00L418.71,425.17L418.35,430.34L418.21,435.56L418.24,440.88L418.31,446.34L418.28,451.93L417.99,457.62L417.29,463.32L416.04,468.93L414.14,474.35L411.55,479.45L408.27,484.13L404.37,488.32L399.94,491.98L395.11,495.11L390.03,497.78L384.84,500.07L379.66,502.12L374.58,504.05L369.65,506.00L364.87,508.07L360.22,510.34L355.64,512.83L351.04,515.52L346.34,518.31L341.49,521.08L336.42,523.67L331.13,525.91L325.64,527.64L320.00,528.70L314.29,529.01L308.59,528.51L303.02,527.22L297.64,525.22L292.51,522.60L287.66,519.54L283.08,516.19L278.72,512.73L274.50,509.29L270.35,506.00L266.17,502.90L261.87,500.00L257.42,497.28L252.80,494.64L248.03,491.97L243.20,489.15L238.43,486.06L233.84,482.60L229.60,478.70L225.86,474.35L222.74,469.56L220.32,464.38L218.65,458.90L217.70,453.24L217.40,447.49L217.63,441.76L218.23,436.12L219.05,430.61L219.92,425.24L220.70,420.00L221.29,414.83L221.65,409.66L221.79,404.44L221.76,399.12L221.69,393.66L221.72,388.07L222.01,382.38L222.71,376.68L223.96,371.07L225.86,365.65L228.45,360.55L231.73,355.87L235.63,351.68L240.06,348.02L244.89,344.89L249.97,342.22L255.16,339.93L260.34,337.88L265.42,335.95L270.35,334.00L275.13,331.93L279.78,329.66L284.36,327.17L288.96,324.48L293.66,321.69L298.51,318.92L303.58,316.33L308.87,314.09L314.36,312.36L320.00,311.30L325.71,310.99L331.41,311.49L336.98,312.78L342.36,314.78L347.49,317.40L352.34,320.46L356.92,323.81L361.28,327.27L365.50,330.71L369.65,334.00L373.83,337.10L378.13,340.00L382.58,342.72L387.20,345.36L391.97,348.03L396.80,350.85L401.57,353.94L406.16,357.40L410.40,361.30L414.14,365.65L417.26,370.44L419.68,375.62L421.35,381.10L422.30,386.76L422.60,392.51L422.37,398.24L421.77,403.88L420.95,409.39L420.08,414.76Z" fill="url(#glaze)"/>
    <path d="M410 410 C 480 350, 550 450, 650 346" stroke="#E0A458" stroke-width="4" stroke-dasharray="12 14" stroke-linecap="round" fill="none" opacity="0.75"/>
    <path d="M650 346 C 602 292, 606 224, 650 224 C 694 224, 698 292, 650 346 Z" fill="url(#cta)" opacity="0.92"/>
    <circle cx="650" cy="262" r="19" fill="#FFF7FA"/>
    <ellipse cx="650" cy="366" rx="34" ry="7" fill="#D63384" opacity="0.14"/></svg>