<svg xmlns="http://www.w3.org/2000/svg" width="960" height="720" viewBox="0 0 960 720" fill="none">
  <defs>
    <linearGradient id="ground" x1="0" y1="0" x2="1" y2="1">
      <stop offset="0" stop-color="#FFF7FA"/>
      <stop offset="1" stop-color="#FFE0EC"/>
    </linearGradient>
    <linearGradient id="clay" x1="0" y1="0" x2="0.7" y2="1">
      <stop offset="0" stop-color="#FFE0EC"/>
      <stop offset="1" stop-color="#FFC2D9"/>
    </linearGradient>
    <linearGradient id="clayDeep" x1="0" y1="0" x2="0.7" y2="1">
      <stop offset="0" stop-color="#FFC2D9"/>
      <stop offset="1" stop-color="#FF94BA"/>
    </linearGradient>
    <linearGradient id="cta" x1="0" y1="0" x2="1" y2="1">
      <stop offset="0" stop-color="#D63384"/>
      <stop offset="1" stop-color="#8C1A55"/>
    </linearGradient>
    <!-- A whisper of light, not a 3D render. A strong radial highlight makes a
         soft pink curve read as a body; at 0.18 it reads as glazed clay. -->
    <radialGradient id="glaze" cx="0.34" cy="0.28" r="0.5">
      <stop offset="0" stop-color="#fff" stop-opacity="0.18"/>
      <stop offset="1" stop-color="#fff" stop-opacity="0"/>
    </radialGradient>
    <radialGradient id="bloom" cx="0.5" cy="0.5" r="0.5">
      <stop offset="0" stop-color="#FF94BA" stop-opacity="0.30"/>
      <stop offset="1" stop-color="#FF94BA" stop-opacity="0"/>
    </radialGradient>
    <pattern id="zellige" width="72" height="72" patternUnits="userSpaceOnUse">
      <polygon points="36.00,17.00 41.57,22.56 49.44,22.56 49.44,30.43 55.00,36.00 49.44,41.57 49.44,49.44 41.57,49.44 36.00,55.00 30.43,49.44 22.56,49.44 22.56,41.57 17.00,36.00 22.56,30.43 22.56,22.56 30.43,22.56" fill="none" stroke="#D63384" stroke-width="1" opacity="0.07"/>
      <polygon points="0.00,-9.00 2.64,-6.36 6.36,-6.36 6.36,-2.64 9.00,0.00 6.36,2.64 6.36,6.36 2.64,6.36 0.00,9.00 -2.64,6.36 -6.36,6.36 -6.36,2.64 -9.00,0.00 -6.36,-2.64 -6.36,-6.36 -2.64,-6.36" fill="none" stroke="#D63384" stroke-width="0.75" opacity="0.05"/>
      <polygon points="72.00,63.00 74.64,65.64 78.36,65.64 78.36,69.36 81.00,72.00 78.36,74.64 78.36,78.36 74.64,78.36 72.00,81.00 69.36,78.36 65.64,78.36 65.64,74.64 63.00,72.00 65.64,69.36 65.64,65.64 69.36,65.64" fill="none" stroke="#D63384" stroke-width="0.75" opacity="0.05"/>
    </pattern>
  </defs>
    <rect width="960" height="720" fill="url(#ground)"/>
    <rect width="960" height="720" fill="url(#zellige)"/>
    <ellipse cx="211.2" cy="144" rx="326.40000000000003" ry="302.4" fill="url(#bloom)"/>
    <path d="M220 510 q 260 -90 520 0 q -260 90 -520 0 z" fill="#FFE0EC" stroke="#D63384" stroke-width="2" stroke-opacity="0.22"/>
    
    <path d="M601.74,390.00L602.63,396.43L602.85,402.91L602.35,409.38L601.12,415.74L599.17,421.93L596.56,427.87L593.37,433.52L589.70,438.84L585.65,443.83L581.36,448.52L576.92,452.94L572.43,457.16L567.98,461.24L563.59,465.26L559.29,469.29L555.06,473.37L550.88,477.53L546.68,481.78L542.40,486.08L537.96,490.39L533.31,494.63L528.39,498.68L523.16,502.44L517.62,505.79L511.78,508.61L505.68,510.82L499.38,512.35L492.94,513.14L486.46,513.20L480.00,512.56L473.64,511.27L467.45,509.42L461.45,507.12L455.67,504.48L450.09,501.63L444.69,498.66L439.43,495.68L434.25,492.75L429.09,489.91L423.91,487.15L418.66,484.46L413.32,481.78L407.90,479.03L402.43,476.15L396.97,473.03L391.59,469.60L386.40,465.79L381.51,461.56L377.01,456.88L373.03,451.76L369.63,446.24L366.88,440.36L364.82,434.21L363.44,427.87L362.70,421.43L362.55,414.97L362.88,408.55L363.60,402.23L364.60,396.05L365.74,390.00L366.95,384.08L368.14,378.24L369.25,372.46L370.27,366.68L371.21,360.85L372.11,354.94L373.04,348.94L374.10,342.85L375.37,336.69L376.97,330.52L378.99,324.41L381.51,318.44L384.57,312.72L388.20,307.35L392.41,302.41L397.15,297.98L402.36,294.12L407.96,290.85L413.86,288.16L419.96,286.01L426.17,284.35L432.40,283.08L438.59,282.11L444.69,281.34L450.70,280.65L456.61,279.98L462.46,279.25L468.27,278.44L474.11,277.53L480.00,276.56L486.00,275.59L492.12,274.71L498.37,274.02L504.73,273.64L511.17,273.67L517.62,274.21L524.01,275.36L530.24,277.16L536.24,279.63L541.91,282.77L547.19,286.53L552.04,290.85L556.42,295.63L560.35,300.77L563.85,306.15L566.98,311.69L569.81,317.27L572.43,322.84L574.94,328.35L577.41,333.76L579.91,339.09L582.48,344.37L585.15,349.64L587.89,354.94L590.66,360.35L593.39,365.90L595.98,371.63L598.31,377.56L600.27,383.70Z" fill="url(#clay)" stroke="#D63384" stroke-width="2.1239999999999997" stroke-opacity="0.28"/>
    <path d="M601.74,390.00L602.63,396.43L602.85,402.91L602.35,409.38L601.12,415.74L599.17,421.93L596.56,427.87L593.37,433.52L589.70,438.84L585.65,443.83L581.36,448.52L576.92,452.94L572.43,457.16L567.98,461.24L563.59,465.26L559.29,469.29L555.06,473.37L550.88,477.53L546.68,481.78L542.40,486.08L537.96,490.39L533.31,494.63L528.39,498.68L523.16,502.44L517.62,505.79L511.78,508.61L505.68,510.82L499.38,512.35L492.94,513.14L486.46,513.20L480.00,512.56L473.64,511.27L467.45,509.42L461.45,507.12L455.67,504.48L450.09,501.63L444.69,498.66L439.43,495.68L434.25,492.75L429.09,489.91L423.91,487.15L418.66,484.46L413.32,481.78L407.90,479.03L402.43,476.15L396.97,473.03L391.59,469.60L386.40,465.79L381.51,461.56L377.01,456.88L373.03,451.76L369.63,446.24L366.88,440.36L364.82,434.21L363.44,427.87L362.70,421.43L362.55,414.97L362.88,408.55L363.60,402.23L364.60,396.05L365.74,390.00L366.95,384.08L368.14,378.24L369.25,372.46L370.27,366.68L371.21,360.85L372.11,354.94L373.04,348.94L374.10,342.85L375.37,336.69L376.97,330.52L378.99,324.41L381.51,318.44L384.57,312.72L388.20,307.35L392.41,302.41L397.15,297.98L402.36,294.12L407.96,290.85L413.86,288.16L419.96,286.01L426.17,284.35L432.40,283.08L438.59,282.11L444.69,281.34L450.70,280.65L456.61,279.98L462.46,279.25L468.27,278.44L474.11,277.53L480.00,276.56L486.00,275.59L492.12,274.71L498.37,274.02L504.73,273.64L511.17,273.67L517.62,274.21L524.01,275.36L530.24,277.16L536.24,279.63L541.91,282.77L547.19,286.53L552.04,290.85L556.42,295.63L560.35,300.77L563.85,306.15L566.98,311.69L569.81,317.27L572.43,322.84L574.94,328.35L577.41,333.76L579.91,339.09L582.48,344.37L585.15,349.64L587.89,354.94L590.66,360.35L593.39,365.90L595.98,371.63L598.31,377.56L600.27,383.70Z" fill="url(#glaze)"/>
    <line x1="290" y1="565" x2="670" y2="565" stroke="#E0A458" stroke-width="2" opacity="0.4"/></svg>