<svg xmlns="http://www.w3.org/2000/svg" width="960" height="720" viewBox="0 0 960 720" fill="none">
  <defs>
    <linearGradient id="ground" x1="0" y1="0" x2="1" y2="1">
      <stop offset="0" stop-color="#FFF7FA"/>
      <stop offset="1" stop-color="#FFE0EC"/>
    </linearGradient>
    <linearGradient id="clay" x1="0" y1="0" x2="0.7" y2="1">
      <stop offset="0" stop-color="#FFE0EC"/>
      <stop offset="1" stop-color="#FFC2D9"/>
    </linearGradient>
    <linearGradient id="clayDeep" x1="0" y1="0" x2="0.7" y2="1">
      <stop offset="0" stop-color="#FFC2D9"/>
      <stop offset="1" stop-color="#FF94BA"/>
    </linearGradient>
    <linearGradient id="cta" x1="0" y1="0" x2="1" y2="1">
      <stop offset="0" stop-color="#D63384"/>
      <stop offset="1" stop-color="#8C1A55"/>
    </linearGradient>
    <!-- A whisper of light, not a 3D render. A strong radial highlight makes a
         soft pink curve read as a body; at 0.18 it reads as glazed clay. -->
    <radialGradient id="glaze" cx="0.34" cy="0.28" r="0.5">
      <stop offset="0" stop-color="#fff" stop-opacity="0.18"/>
      <stop offset="1" stop-color="#fff" stop-opacity="0"/>
    </radialGradient>
    <radialGradient id="bloom" cx="0.5" cy="0.5" r="0.5">
      <stop offset="0" stop-color="#FF94BA" stop-opacity="0.30"/>
      <stop offset="1" stop-color="#FF94BA" stop-opacity="0"/>
    </radialGradient>
    <pattern id="zellige" width="72" height="72" patternUnits="userSpaceOnUse">
      <polygon points="36.00,17.00 41.57,22.56 49.44,22.56 49.44,30.43 55.00,36.00 49.44,41.57 49.44,49.44 41.57,49.44 36.00,55.00 30.43,49.44 22.56,49.44 22.56,41.57 17.00,36.00 22.56,30.43 22.56,22.56 30.43,22.56" fill="none" stroke="#D63384" stroke-width="1" opacity="0.07"/>
      <polygon points="0.00,-9.00 2.64,-6.36 6.36,-6.36 6.36,-2.64 9.00,0.00 6.36,2.64 6.36,6.36 2.64,6.36 0.00,9.00 -2.64,6.36 -6.36,6.36 -6.36,2.64 -9.00,0.00 -6.36,-2.64 -6.36,-6.36 -2.64,-6.36" fill="none" stroke="#D63384" stroke-width="0.75" opacity="0.05"/>
      <polygon points="72.00,63.00 74.64,65.64 78.36,65.64 78.36,69.36 81.00,72.00 78.36,74.64 78.36,78.36 74.64,78.36 72.00,81.00 69.36,78.36 65.64,78.36 65.64,74.64 63.00,72.00 65.64,69.36 65.64,65.64 69.36,65.64" fill="none" stroke="#D63384" stroke-width="0.75" opacity="0.05"/>
    </pattern>
  </defs>
    <rect width="960" height="720" fill="url(#ground)"/>
    <rect width="960" height="720" fill="url(#zellige)"/>
    <ellipse cx="211.2" cy="144" rx="326.40000000000003" ry="302.4" fill="url(#bloom)"/>
    
    <path d="M585.69,360.00L583.07,365.40L580.51,370.56L578.15,375.55L576.14,380.43L574.52,385.33L573.31,390.32L572.47,395.50L571.89,400.91L571.45,406.60L570.98,412.53L570.30,418.64L569.24,424.84L567.65,430.98L565.42,436.91L562.46,442.46L558.77,447.48L554.35,451.82L549.29,455.37L543.70,458.08L537.70,459.95L531.46,461.00L525.13,461.35L518.82,461.14L512.66,460.52L506.71,459.70L501.01,458.85L495.55,458.15L490.27,457.75L485.12,457.72L480.00,458.11L474.82,458.91L469.49,460.04L463.94,461.38L458.16,462.76L452.13,464.00L445.91,464.91L439.58,465.30L433.25,465.00L427.05,463.91L421.14,461.94L415.65,459.09L410.71,455.37L406.40,450.89L402.78,445.77L399.84,440.16L397.55,434.24L395.81,428.17L394.49,422.13L393.44,416.21L392.48,410.53L391.45,405.12L390.21,399.98L388.65,395.07L386.69,390.32L384.33,385.64L381.61,380.91L378.62,376.06L375.52,370.98L372.48,365.63L369.69,360.00L367.37,354.10L365.69,347.99L364.81,341.76L364.86,335.53L365.88,329.42L367.88,323.57L370.82,318.09L374.57,313.06L379.00,308.54L383.92,304.53L389.15,301.00L394.49,297.87L399.79,295.05L404.90,292.38L409.73,289.73L414.23,286.96L418.42,283.95L422.33,280.62L426.05,276.93L429.70,272.89L433.40,268.55L437.27,264.03L441.41,259.48L445.91,255.09L450.81,251.06L456.10,247.57L461.76,244.81L467.70,242.93L473.82,242.02L480.00,242.11L486.12,243.21L492.06,245.22L497.73,248.04L503.07,251.48L508.04,255.36L512.66,259.48L516.99,263.64L521.10,267.68L525.12,271.45L529.14,274.88L533.29,277.93L537.67,280.62L542.33,283.03L547.31,285.25L552.58,287.42L558.07,289.70L563.67,292.24L569.24,295.16L574.59,298.57L579.54,302.53L583.91,307.05L587.54,312.12L590.30,317.66L592.12,323.57L592.97,329.73L592.89,336.01L591.96,342.27L590.34,348.40L588.18,354.33Z" fill="url(#clay)" stroke="#D63384" stroke-width="1.944" stroke-opacity="0.28"/>
    <path d="M585.69,360.00L583.07,365.40L580.51,370.56L578.15,375.55L576.14,380.43L574.52,385.33L573.31,390.32L572.47,395.50L571.89,400.91L571.45,406.60L570.98,412.53L570.30,418.64L569.24,424.84L567.65,430.98L565.42,436.91L562.46,442.46L558.77,447.48L554.35,451.82L549.29,455.37L543.70,458.08L537.70,459.95L531.46,461.00L525.13,461.35L518.82,461.14L512.66,460.52L506.71,459.70L501.01,458.85L495.55,458.15L490.27,457.75L485.12,457.72L480.00,458.11L474.82,458.91L469.49,460.04L463.94,461.38L458.16,462.76L452.13,464.00L445.91,464.91L439.58,465.30L433.25,465.00L427.05,463.91L421.14,461.94L415.65,459.09L410.71,455.37L406.40,450.89L402.78,445.77L399.84,440.16L397.55,434.24L395.81,428.17L394.49,422.13L393.44,416.21L392.48,410.53L391.45,405.12L390.21,399.98L388.65,395.07L386.69,390.32L384.33,385.64L381.61,380.91L378.62,376.06L375.52,370.98L372.48,365.63L369.69,360.00L367.37,354.10L365.69,347.99L364.81,341.76L364.86,335.53L365.88,329.42L367.88,323.57L370.82,318.09L374.57,313.06L379.00,308.54L383.92,304.53L389.15,301.00L394.49,297.87L399.79,295.05L404.90,292.38L409.73,289.73L414.23,286.96L418.42,283.95L422.33,280.62L426.05,276.93L429.70,272.89L433.40,268.55L437.27,264.03L441.41,259.48L445.91,255.09L450.81,251.06L456.10,247.57L461.76,244.81L467.70,242.93L473.82,242.02L480.00,242.11L486.12,243.21L492.06,245.22L497.73,248.04L503.07,251.48L508.04,255.36L512.66,259.48L516.99,263.64L521.10,267.68L525.12,271.45L529.14,274.88L533.29,277.93L537.67,280.62L542.33,283.03L547.31,285.25L552.58,287.42L558.07,289.70L563.67,292.24L569.24,295.16L574.59,298.57L579.54,302.53L583.91,307.05L587.54,312.12L590.30,317.66L592.12,323.57L592.97,329.73L592.89,336.01L591.96,342.27L590.34,348.40L588.18,354.33Z" fill="url(#glaze)"/>
    <circle cx="480" cy="360" r="160" fill="none" stroke="#D63384" stroke-width="2.5" stroke-dasharray="4 12" opacity="0.5"/>
    <circle cx="480" cy="360" r="212" fill="none" stroke="#D63384" stroke-width="2" stroke-dasharray="4 14" opacity="0.35"/>
    <circle cx="692" cy="360" r="10" fill="#D63384" opacity="0.6"/></svg>